<svg width="24" height="24" viewBox="0 0 24 24" fill="none" xmlns="http://www.w3.org/2000/svg">
<g clip-path="url(#clip0_30078_5)">
<path d="M9.1 19C9.76304 19 10.3989 19.2634 10.8678 19.7322C11.3366 20.2011 11.6 20.837 11.6 21.5C11.6 22.163 11.3366 22.7989 10.8678 23.2678C10.3989 23.7366 9.76304 24 9.1 24C8.43696 24 7.80107 23.7366 7.33223 23.2678C6.86339 22.7989 6.6 22.163 6.6 21.5C6.6 20.837 6.86339 20.2011 7.33223 19.7322C7.80107 19.2634 8.43696 19 9.1 19ZM19.5 19C20.163 19 20.7989 19.2634 21.2678 19.7322C21.7366 20.2011 22 20.837 22 21.5C22 22.163 21.7366 22.7989 21.2678 23.2678C20.7989 23.7366 20.163 24 19.5 24C18.837 24 18.2011 23.7366 17.7322 23.2678C17.2634 22.7989 17 22.163 17 21.5C17 20.837 17.2634 20.2011 17.7322 19.7322C18.2011 19.2634 18.837 19 19.5 19ZM9.1 21C8.96739 21 8.84021 21.0527 8.74645 21.1464C8.65268 21.2402 8.6 21.3674 8.6 21.5C8.6 21.6326 8.65268 21.7598 8.74645 21.8536C8.84021 21.9473 8.96739 22 9.1 22C9.23261 22 9.35979 21.9473 9.45355 21.8536C9.54732 21.7598 9.6 21.6326 9.6 21.5C9.6 21.3674 9.54732 21.2402 9.45355 21.1464C9.35979 21.0527 9.23261 21 9.1 21ZM19.5 21C19.3674 21 19.2402 21.0527 19.1464 21.1464C19.0527 21.2402 19 21.3674 19 21.5C19 21.6326 19.0527 21.7598 19.1464 21.8536C19.2402 21.9473 19.3674 22 19.5 22C19.6326 22 19.7598 21.9473 19.8536 21.8536C19.9473 21.7598 20 21.6326 20 21.5C20 21.3674 19.9473 21.2402 19.8536 21.1464C19.7598 21.0527 19.6326 21 19.5 21ZM22 2C22.3213 2.00002 22.6379 2.07746 22.923 2.22577C23.208 2.37408 23.4531 2.58889 23.6376 2.85201C23.822 3.11513 23.9404 3.41882 23.9826 3.73737C24.0247 4.05591 23.9896 4.37993 23.88 4.682L23.788 4.894L19.788 12.894C19.6408 13.1884 19.4232 13.4419 19.1546 13.632C18.886 13.8221 18.5746 13.9431 18.248 13.984L18 14H10C9.87788 13.9998 9.75604 13.9884 9.636 13.966L8.618 16H21C21.2499 15.9995 21.4909 16.0927 21.6756 16.261C21.8602 16.4294 21.9752 16.6608 21.9978 16.9096C22.0203 17.1585 21.9489 17.4068 21.7976 17.6057C21.6462 17.8045 21.4259 17.9395 21.18 17.984L21 18H8.618C8.29691 17.9999 7.98058 17.9224 7.69574 17.7742C7.4109 17.626 7.16593 17.4114 6.98154 17.1486C6.79714 16.8857 6.67875 16.5823 6.63636 16.264C6.59397 15.9458 6.62883 15.622 6.738 15.32L6.83 15.106L8.072 12.618L4.212 4.894C4.17397 4.81878 4.14057 4.7413 4.112 4.662L2.78 2H1C0.765949 2.00008 0.539285 1.91806 0.359482 1.76822C0.179679 1.61839 0.0581292 1.41023 0.0160001 1.18L5.56206e-08 1C-7.79722e-05 0.765949 0.0819429 0.539285 0.231779 0.359482C0.381615 0.179679 0.589772 0.0581293 0.82 0.0160001L1 1.43269e-07H3.4C3.55407 -8.23196e-05 3.70607 0.0354342 3.84414 0.103779C3.98222 0.172123 4.10264 0.271447 4.196 0.394L4.296 0.554L5.018 2H22ZM22 4H6.018L9.894 11.752L9.96 11.92L10 12H18L22 4Z" fill="white"/>
</g>
<defs>
<clipPath id="clip0_30078_5">
<rect width="24" height="24" fill="white"/>
</clipPath>
</defs>
</svg>
