<svg width="32" height="32" viewBox="0 0 32 32" fill="none" xmlns="http://www.w3.org/2000/svg">
<g clip-path="url(#clip0_30039_24)">
<path d="M12.1333 25.3333C13.0174 25.3333 13.8652 25.6845 14.4904 26.3096C15.1155 26.9348 15.4667 27.7826 15.4667 28.6667C15.4667 29.5507 15.1155 30.3986 14.4904 31.0237C13.8652 31.6488 13.0174 32 12.1333 32C11.2493 32 10.4014 31.6488 9.77631 31.0237C9.15119 30.3986 8.8 29.5507 8.8 28.6667C8.8 27.7826 9.15119 26.9348 9.77631 26.3096C10.4014 25.6845 11.2493 25.3333 12.1333 25.3333ZM26 25.3333C26.8841 25.3333 27.7319 25.6845 28.357 26.3096C28.9821 26.9348 29.3333 27.7826 29.3333 28.6667C29.3333 29.5507 28.9821 30.3986 28.357 31.0237C27.7319 31.6488 26.8841 32 26 32C25.1159 32 24.2681 31.6488 23.643 31.0237C23.0179 30.3986 22.6667 29.5507 22.6667 28.6667C22.6667 27.7826 23.0179 26.9348 23.643 26.3096C24.2681 25.6845 25.1159 25.3333 26 25.3333ZM12.1333 28C11.9565 28 11.787 28.0702 11.6619 28.1953C11.5369 28.3203 11.4667 28.4899 11.4667 28.6667C11.4667 28.8435 11.5369 29.013 11.6619 29.1381C11.787 29.2631 11.9565 29.3333 12.1333 29.3333C12.3101 29.3333 12.4797 29.2631 12.6047 29.1381C12.7298 29.013 12.8 28.8435 12.8 28.6667C12.8 28.4899 12.7298 28.3203 12.6047 28.1953C12.4797 28.0702 12.3101 28 12.1333 28ZM26 28C25.8232 28 25.6536 28.0702 25.5286 28.1953C25.4036 28.3203 25.3333 28.4899 25.3333 28.6667C25.3333 28.8435 25.4036 29.013 25.5286 29.1381C25.6536 29.2631 25.8232 29.3333 26 29.3333C26.1768 29.3333 26.3464 29.2631 26.4714 29.1381C26.5964 29.013 26.6667 28.8435 26.6667 28.6667C26.6667 28.4899 26.5964 28.3203 26.4714 28.1953C26.3464 28.0702 26.1768 28 26 28ZM29.3333 2.66667C29.7618 2.66669 30.1839 2.76995 30.564 2.9677C30.944 3.16544 31.2709 3.45185 31.5168 3.80268C31.7627 4.15351 31.9205 4.55843 31.9767 4.98315C32.033 5.40788 31.9861 5.83991 31.84 6.24267L31.7173 6.52533L26.384 17.192C26.1877 17.5845 25.8977 17.9225 25.5395 18.176C25.1813 18.4295 24.7661 18.5907 24.3307 18.6453L24 18.6667H13.3333C13.1705 18.6664 13.0081 18.6512 12.848 18.6213L11.4907 21.3333H28C28.3332 21.3327 28.6545 21.4569 28.9008 21.6814C29.147 21.9058 29.3002 22.2144 29.3303 22.5462C29.3604 22.878 29.2652 23.2091 29.0634 23.4742C28.8616 23.7393 28.5679 23.9193 28.24 23.9787L28 24H11.4907C11.0626 23.9998 10.6408 23.8966 10.261 23.699C9.8812 23.5014 9.55457 23.2152 9.30871 22.8648C9.06286 22.5143 8.90499 22.1098 8.84848 21.6854C8.79196 21.261 8.83844 20.8293 8.984 20.4267L9.10667 20.1413L10.7627 16.824L5.616 6.52533C5.56529 6.42504 5.52077 6.32173 5.48267 6.216L3.70667 2.66667H1.33333C1.02127 2.66677 0.719047 2.55741 0.47931 2.35763C0.239572 2.15785 0.0775056 1.8803 0.0213334 1.57333L7.41607e-08 1.33333C-0.000103963 1.02127 0.109257 0.719047 0.309038 0.47931C0.508819 0.239573 0.786362 0.0775058 1.09333 0.0213335L1.33333 1.91026e-07H4.53333C4.73875 -0.000109759 4.94142 0.0472457 5.12552 0.138371C5.30963 0.229497 5.47018 0.361929 5.59467 0.525334L5.728 0.738667L6.69067 2.66667H29.3333ZM29.3333 5.33333H8.024L13.192 15.6693L13.28 15.8933L13.3333 16H24L29.3333 5.33333Z" fill="white"/>
</g>
<defs>
<clipPath id="clip0_30039_24">
<rect width="32" height="32" fill="white"/>
</clipPath>
</defs>
</svg>
