<svg width="50" height="50" viewBox="0 0 50 50" fill="none" xmlns="http://www.w3.org/2000/svg">
<rect width="50" height="50" fill="#D20606"/>
<path d="M25.1493 3C25.1303 3.09638 25.1112 3.19276 25.0916 3.29205C24.5069 6.48646 24.5847 9.84284 26.3738 12.625C26.883 13.3594 27.4116 14.094 28.0474 14.7213C28.2786 14.9625 28.2786 14.9625 28.2786 15.2375C28.4133 15.2829 28.548 15.3283 28.6868 15.375C28.9186 15.599 29.1446 15.8291 29.3671 16.0625C30.1366 16.7978 30.914 17.5145 31.7396 18.1852C32.4706 18.7802 33.1557 19.4161 33.84 20.0645C34.202 20.4066 34.5765 20.7309 34.954 21.0555C38.0183 23.8401 39.7033 27.7628 39.9796 31.875C40.1718 35.8975 39.0074 39.6615 36.4421 42.7375C36.3442 42.8589 36.2464 42.9803 36.1455 43.1054C34.6615 44.8716 32.5399 46.381 30.3195 47C30.4318 46.8724 30.544 46.7448 30.6596 46.6133C30.8194 46.4222 30.978 46.2302 31.1358 46.0375C31.2242 45.9308 31.3126 45.8241 31.4037 45.7142C33.2873 43.2908 33.4523 40.2588 33.138 37.284C32.889 35.7008 32.2544 34.1853 31.6801 32.7C31.6848 32.823 31.6896 32.946 31.6944 33.0728C31.733 34.8158 31.4337 36.3411 30.2005 37.6446C29.5812 38.2 29.5812 38.2 29.231 38.2C29.2434 38.1123 29.2558 38.0245 29.2685 37.9342C29.8333 33.8596 29.9524 29.9103 27.4533 26.3917C26.8103 25.5611 26.1185 24.941 25.2854 24.3125C25.2875 24.4011 25.2896 24.4897 25.2918 24.581C25.3004 24.9899 25.3057 25.3988 25.3109 25.8078C25.3143 25.9471 25.3177 26.0864 25.3212 26.23C25.3411 28.3216 24.5013 29.6466 23.1377 31.1596C22.7024 31.5971 22.2284 31.9768 21.7484 32.3627C19.9031 33.8856 18.1146 35.5584 17.394 37.925C17.3465 38.0613 17.299 38.1976 17.25 38.338C17.052 39.0483 17.0771 39.7707 17.0794 40.5031C17.0772 40.6435 17.075 40.7839 17.0728 40.9285C17.0714 43.1256 17.9273 44.7892 19.2988 46.45C19.209 46.4954 19.1192 46.5408 19.0267 46.5875C18.6772 46.4215 18.3491 46.2482 18.0148 46.0547C17.9168 45.9984 17.8189 45.9422 17.718 45.8842C16.855 45.376 16.1015 44.7804 15.3532 44.1125C15.2143 44.0016 15.2143 44.0016 15.0726 43.8885C12.2097 41.5611 10.5833 37.6062 10.1399 33.9993C9.89439 31.5349 9.95557 29.0742 10.4551 26.65C10.489 26.4759 10.489 26.4759 10.5237 26.2983C11.0195 23.7738 11.7961 21.343 12.7511 18.9586C12.79 18.861 12.8289 18.7633 12.869 18.6627C13.1421 18.0048 13.1421 18.0048 13.4484 17.85C13.4441 18.0337 13.4441 18.0337 13.4397 18.2212C13.4303 18.6863 13.4236 19.1514 13.4185 19.6166C13.4158 19.8159 13.4121 20.0152 13.4073 20.2145C13.3455 22.8612 13.9982 25.2034 15.849 27.1769C16.3241 27.6188 16.8369 27.9725 17.394 28.3C17.3295 27.7096 17.2486 27.1342 17.1256 26.5533C16.3607 22.7491 16.2768 18.3157 17.258 14.55C17.2857 14.4356 17.3134 14.3213 17.3419 14.2034C18.1872 10.7616 19.8463 7.72778 22.2921 5.2C22.3858 5.09844 22.4794 4.99688 22.5759 4.89224C24.3574 3 24.3574 3 25.1493 3Z" fill="url(#paint0_linear_30218_49)"/>
<defs>
<linearGradient id="paint0_linear_30218_49" x1="10" y1="25" x2="40" y2="25" gradientUnits="userSpaceOnUse">
<stop stop-color="#999999"/>
<stop offset="0.5" stop-color="white"/>
<stop offset="1" stop-color="#999999"/>
</linearGradient>
</defs>
</svg>
