<svg width="40" height="40" viewBox="0 0 40 40" fill="none" xmlns="http://www.w3.org/2000/svg">
<path d="M35.9872 6.47949C33.9777 5.78918 32.3679 4.17023 31.6806 2.14874C31.2436 0.863342 30.0403 0 28.6859 0H11.236C9.8819 0 8.67828 0.863342 8.24127 2.14874C7.55402 4.17023 5.94421 5.78918 3.93463 6.47949C2.65594 6.91895 1.79688 8.12592 1.79688 9.48303V13.8974C1.79688 19.6579 3.52295 25.2045 6.78864 29.9377C9.77661 34.2685 13.894 37.6575 18.6963 39.7388C19.0982 39.913 19.5294 40 19.9609 40C20.3922 40 20.8234 39.913 21.2253 39.7388C26.0275 37.6578 30.145 34.2685 33.1329 29.9377C36.3986 25.2045 38.125 19.6576 38.125 13.8974V9.48303C38.125 8.12592 37.2659 6.91895 35.9872 6.47949ZM35.7812 13.8974C35.7812 19.18 34.1983 24.2664 31.2036 28.6069C28.4653 32.576 24.6924 35.6818 20.2933 37.5882C20.0824 37.6797 19.8398 37.6801 19.6283 37.5882C15.2289 35.6818 11.4563 32.576 8.71796 28.6069C5.72357 24.2667 4.14062 19.1803 4.14062 13.8974V9.48303C4.14062 9.12659 4.36401 8.81042 4.69635 8.69629C7.38647 7.77191 9.54132 5.60638 10.4602 2.90314C10.574 2.56866 10.8856 2.34375 11.236 2.34375H28.6859C29.0359 2.34375 29.3478 2.56866 29.4617 2.90314C30.3806 5.60638 32.5354 7.77191 35.2255 8.69629C35.5579 8.81042 35.7812 9.12659 35.7812 9.48303V13.8974Z" fill="white"/>
<path d="M24.9405 15.194H24.8608V11.8566C24.8608 9.15485 22.6627 6.95667 19.9609 6.95667C17.2592 6.95667 15.061 9.15485 15.061 11.8566V15.194H14.9814C13.4253 15.194 12.1594 16.4601 12.1594 18.0162V24.7606C12.1594 27.6586 14.5172 30.0167 17.4149 30.0167H22.507C25.405 30.0167 27.7625 27.6586 27.7625 24.7606V18.0162C27.7625 16.4601 26.4966 15.194 24.9405 15.194ZM17.4048 11.8566C17.4048 10.4473 18.5516 9.30042 19.9609 9.30042C21.3702 9.30042 22.5171 10.4473 22.5171 11.8566V15.1943H17.4048V11.8566ZM25.4187 24.7606C25.4187 26.3665 24.1125 27.6726 22.507 27.6726H17.4149C15.8093 27.6726 14.5032 26.3665 14.5032 24.7606V18.0162C14.5032 17.7526 14.7177 17.538 14.9814 17.538H24.9405C25.2042 17.538 25.4187 17.7526 25.4187 18.0162V24.7606Z" fill="white"/>
<path d="M19.9609 20.3265C19.3137 20.3265 18.7891 20.8511 18.7891 21.4984V23.7125C18.7891 24.3597 19.3137 24.8843 19.9609 24.8843C20.6082 24.8843 21.1328 24.3597 21.1328 23.7125V21.4984C21.1328 20.8511 20.6082 20.3265 19.9609 20.3265Z" fill="white"/>
</svg>
