<svg width="20" height="30" viewBox="0 0 20 30" fill="none" xmlns="http://www.w3.org/2000/svg">
<path d="M10.0995 0C10.0868 0.0635777 10.0741 0.127155 10.0611 0.19266C9.67124 2.29992 9.72316 4.51404 10.9159 6.34935C11.2553 6.83382 11.6077 7.31841 12.0316 7.73225C12.1858 7.89134 12.1858 7.89134 12.1858 8.07275C12.2756 8.10268 12.3654 8.13262 12.4579 8.16346C12.6124 8.31123 12.7631 8.463 12.9114 8.61698C13.4244 9.10205 13.9427 9.57484 14.4931 10.0172C14.9804 10.4098 15.4371 10.8293 15.8933 11.257C16.1346 11.4827 16.3843 11.6966 16.636 11.9107C18.6788 13.7476 19.8022 16.3353 19.9864 19.0481C20.1145 21.7016 19.3383 24.1846 17.6281 26.2138C17.5628 26.2939 17.4976 26.3739 17.4304 26.4565C16.441 27.6216 15.0266 28.6173 13.5463 29.0256C13.6212 28.9414 13.696 28.8572 13.7731 28.7705C13.8796 28.6444 13.9853 28.5178 14.0906 28.3907C14.1495 28.3203 14.2084 28.2499 14.2691 28.1774C15.5248 26.5788 15.6349 24.5786 15.4254 22.6162C15.2593 21.5718 14.8363 20.5721 14.4534 19.5923C14.4565 19.6734 14.4597 19.7546 14.463 19.8382C14.4887 20.988 14.2892 21.9943 13.467 22.8541C13.0542 23.2205 13.0542 23.2205 12.8207 23.2205C12.8289 23.1626 12.8372 23.1048 12.8457 23.0451C13.2222 20.3573 13.3016 17.752 11.6355 15.4308C11.2069 14.883 10.7457 14.4739 10.1902 14.0593C10.1917 14.1177 10.1931 14.1762 10.1946 14.2364C10.2003 14.5062 10.2038 14.7759 10.2073 15.0457C10.2095 15.1376 10.2118 15.2295 10.2142 15.3242C10.2274 16.704 9.6675 17.5781 8.75846 18.5761C8.46828 18.8647 8.1523 19.1152 7.83227 19.3698C6.60208 20.3744 5.40972 21.4779 4.92936 23.0391C4.89767 23.129 4.86598 23.2189 4.83334 23.3116C4.70136 23.7801 4.7181 24.2567 4.7196 24.7398C4.71814 24.8324 4.71668 24.925 4.71517 25.0204C4.71425 26.4698 5.28488 27.5672 6.19923 28.6628C6.13936 28.6927 6.0795 28.7227 6.01782 28.7535C5.78483 28.644 5.56606 28.5296 5.3432 28.402C5.2779 28.3649 5.21259 28.3278 5.14531 28.2896C4.57001 27.9543 4.06764 27.5614 3.56878 27.1208C3.47618 27.0477 3.47618 27.0477 3.3817 26.9731C1.47313 25.4377 0.388896 22.8288 0.0932442 20.4494C-0.0704093 18.8237 -0.029619 17.2005 0.303398 15.6013C0.326023 15.4864 0.326023 15.4864 0.349105 15.3692C0.679658 13.7039 1.19742 12.1004 1.83405 10.5275C1.85999 10.4631 1.88593 10.3986 1.91266 10.3323C2.09472 9.89824 2.09472 9.89824 2.29891 9.79615C2.29606 9.91735 2.29606 9.91735 2.29315 10.041C2.28688 10.3478 2.28238 10.6546 2.27898 10.9615C2.27718 11.093 2.27473 11.2245 2.27154 11.356C2.23033 13.1019 2.66548 14.647 3.89936 15.9489C4.21604 16.2403 4.55792 16.4737 4.92936 16.6897C4.88634 16.3003 4.83239 15.9207 4.75043 15.5375C4.24048 13.0279 4.18456 10.1033 4.83865 7.61922C4.85712 7.54378 4.8756 7.46833 4.89463 7.3906C5.45813 5.12011 6.56418 3.11879 8.19474 1.45128C8.25718 1.38428 8.31961 1.31729 8.38394 1.24826C9.5716 0 9.5716 0 10.0995 0Z" fill="white"/>
</svg>
