<svg width="17" height="16" viewBox="0 0 17 16" fill="none" xmlns="http://www.w3.org/2000/svg">
<path d="M6.87246 1.03657C7.32148 -0.345392 9.2766 -0.345394 9.72563 1.03657L10.6564 3.90132C10.8573 4.51935 11.4332 4.93779 12.083 4.93779H15.0952C16.5483 4.93779 17.1524 6.79721 15.9769 7.65132L13.54 9.42183C13.0142 9.80379 12.7943 10.4808 12.9951 11.0989L13.9259 13.9636C14.3749 15.3456 12.7932 16.4948 11.6176 15.6407L9.18072 13.8702C8.65499 13.4882 7.9431 13.4882 7.41736 13.8702L4.98047 15.6407C3.8049 16.4948 2.22318 15.3456 2.6722 13.9636L3.60302 11.0989C3.80383 10.4808 3.58384 9.80379 3.05811 9.42183L0.621212 7.65132C-0.554358 6.79722 0.0498047 4.93779 1.50289 4.93779H4.51506C5.1649 4.93779 5.74083 4.51935 5.94164 3.90132L6.87246 1.03657Z" fill="#FFDA29"/>
</svg>
