<svg width="23" height="22" viewBox="0 0 23 22" fill="none" xmlns="http://www.w3.org/2000/svg">
<path d="M9.16326 1.38193C9.76196 -0.460691 12.3688 -0.460688 12.9675 1.38193L14.2086 5.2016C14.4763 6.02564 15.2442 6.58356 16.1107 6.58356H20.1269C22.0644 6.58356 22.8699 9.06279 21.3025 10.2016L18.0533 12.5623C17.3523 13.0716 17.059 13.9743 17.3267 14.7983L18.5678 18.618C19.1665 20.4606 17.0576 21.9929 15.4901 20.8541L12.2409 18.4934C11.54 17.9841 10.5908 17.9841 9.8898 18.4934L6.6406 20.8541C5.07317 21.9929 2.96421 20.4606 3.56292 18.618L4.804 14.7983C5.07175 13.9743 4.77843 13.0716 4.07746 12.5623L0.828258 10.2016C-0.739169 9.06279 0.0663848 6.58356 2.00383 6.58356H6.02006C6.88651 6.58356 7.65442 6.02564 7.92217 5.20159L9.16326 1.38193Z" fill="#E1C025"/>
</svg>
