<svg width="24" height="24" viewBox="0 0 24 24" fill="none" xmlns="http://www.w3.org/2000/svg">
<g clip-path="url(#clip0_30048_19)">
<path d="M0.703125 3.4364C0.703125 3.4364 11.9969 4.31414 14.8827 12.2428C16.1223 15.6486 14.3663 19.4144 10.9605 20.6541C7.5547 21.8937 3.78886 20.1376 2.54925 16.7318C0.946031 12.327 3.06745 8.56185 0.703125 3.4364Z" stroke="white" stroke-width="1.40625" stroke-miterlimit="10" stroke-linecap="round" stroke-linejoin="round"/>
<path d="M8.65366 5.72225C13.3607 -0.204815 23.2969 0.76156 23.2969 0.76156C20.0785 5.39858 21.5139 9.47492 19.1701 13.5344C18.2128 15.1925 16.6411 16.2746 14.9086 16.6595" stroke="white" stroke-width="1.40625" stroke-miterlimit="10" stroke-linecap="round" stroke-linejoin="round"/>
<path d="M13.8864 10.2265C15.3099 8.22995 16.8339 6.30517 18.4546 4.46106" stroke="white" stroke-width="1.40625" stroke-miterlimit="10" stroke-linecap="round" stroke-linejoin="round"/>
<path d="M11.9224 23.2968L11.0081 20.7848C9.37717 16.3037 7.30755 11.9947 4.82941 7.92053" stroke="white" stroke-width="1.40625" stroke-miterlimit="10" stroke-linecap="round" stroke-linejoin="round"/>
</g>
<defs>
<clipPath id="clip0_30048_19">
<rect width="24" height="24" fill="white"/>
</clipPath>
</defs>
</svg>
