<svg width="40" height="40" viewBox="0 0 40 40" fill="none" xmlns="http://www.w3.org/2000/svg">
<g clip-path="url(#clip0_30048_38)">
<path d="M1.17188 5.72723C1.17188 5.72723 19.9948 7.19012 24.8045 20.4046C26.8705 26.0809 23.9438 32.3573 18.2675 34.4233C12.5912 36.4893 6.31477 33.5626 4.24875 27.8863C1.57672 20.5449 5.11242 14.2697 1.17188 5.72723Z" stroke="white" stroke-width="2" stroke-miterlimit="10" stroke-linecap="round" stroke-linejoin="round"/>
<path d="M14.4227 9.53708C22.2679 -0.341359 38.8281 1.26927 38.8281 1.26927C33.4641 8.99763 35.8564 15.7915 31.9502 22.5573C30.3546 25.3209 27.7351 27.1243 24.8476 27.7658" stroke="white" stroke-width="2" stroke-miterlimit="10" stroke-linecap="round" stroke-linejoin="round"/>
<path d="M23.144 17.0442C25.5165 13.7165 28.0565 10.5086 30.7576 7.43506" stroke="white" stroke-width="2" stroke-miterlimit="10" stroke-linecap="round" stroke-linejoin="round"/>
<path d="M19.8707 38.8282L18.3468 34.6415C15.6286 27.173 12.1792 19.9913 8.04895 13.201" stroke="white" stroke-width="2" stroke-miterlimit="10" stroke-linecap="round" stroke-linejoin="round"/>
</g>
<defs>
<clipPath id="clip0_30048_38">
<rect width="40" height="40" fill="white"/>
</clipPath>
</defs>
</svg>
